<svg width="1439" height="395" viewBox="0 0 1439 395" fill="none" xmlns="http://www.w3.org/2000/svg">
<rect width="1439" height="395" fill="#F9F9F9"/>
<mask id="mask0" mask-type="alpha" maskUnits="userSpaceOnUse" x="0" y="0" width="1439" height="395">
<rect width="1439" height="395" fill="#F9F9F9"/>
</mask>
<g mask="url(#mask0)">
<path d="M210.909 372.79L210.911 372.79C225.183 372.79 236.573 360.587 236.573 345.871C236.573 331.166 225.182 318.964 210.911 318.964C196.651 318.964 185.26 331.154 185.26 345.871C185.26 360.587 196.639 372.777 210.909 372.79ZM210.911 307.417C230.825 307.417 247.258 324.546 247.258 345.871C247.258 367.196 230.835 384.325 210.911 384.325C190.998 384.325 174.565 367.195 174.565 345.871C174.565 324.546 190.998 307.417 210.911 307.417Z" fill="#3196A9" fill-opacity="0.03" stroke="#F9F9F9" stroke-width="5"/>
<path d="M210.922 273.379C248.641 273.379 279.554 305.775 279.554 345.871C279.554 385.966 248.63 418.362 210.922 418.362C173.203 418.362 142.29 385.966 142.29 345.871C142.29 305.775 173.203 273.379 210.922 273.379ZM210.922 284.915C178.845 284.915 152.974 312.384 152.974 345.871C152.974 379.358 178.845 406.827 210.922 406.827C242.999 406.827 268.87 379.358 268.87 345.871C268.87 312.384 242.999 284.915 210.922 284.915Z" fill="#3196A9" fill-opacity="0.03" stroke="#F9F9F9" stroke-width="5"/>
<path d="M210.922 239.342C266.446 239.342 311.84 287.004 311.84 345.871C311.84 404.738 266.445 452.411 210.922 452.411C155.398 452.411 110.004 404.738 110.004 345.871C110.004 287.004 155.398 239.342 210.922 239.342ZM210.911 250.877C161.029 250.877 120.677 293.612 120.677 345.871C120.677 398.129 161.029 440.864 210.911 440.864C260.793 440.864 301.144 398.129 301.144 345.871C301.144 293.612 260.793 250.877 210.911 250.877Z" fill="#3196A9" fill-opacity="0.03" stroke="#F9F9F9" stroke-width="5"/>
<path d="M210.911 205.293C284.24 205.293 344.125 268.233 344.125 345.871C344.125 423.509 284.24 486.449 210.911 486.449C137.582 486.449 77.6964 423.509 77.6964 345.871C77.6964 268.233 137.582 205.293 210.911 205.293ZM210.911 216.841C143.235 216.841 88.3918 274.842 88.3918 345.871C88.3918 416.901 143.235 474.902 210.911 474.902C278.587 474.902 333.43 416.901 333.43 345.871C333.43 274.854 278.587 216.841 210.911 216.841Z" fill="#3196A9" fill-opacity="0.03" stroke="#F9F9F9" stroke-width="5"/>
<path d="M233.551 518.859L233.546 518.859C226.177 519.936 218.555 520.498 210.922 520.498C191.937 520.498 173.281 517.117 155.48 510.457C89.7026 485.763 45.4107 419.666 45.4107 345.883C45.4107 249.474 119.777 171.268 210.911 171.268C302.34 171.268 376.411 249.529 376.411 345.883C376.411 432.859 314.884 507.138 233.551 518.859ZM158.98 499.546L158.982 499.546C175.643 505.788 193.127 508.951 210.922 508.951C218.076 508.951 225.222 508.43 232.136 507.411C308.418 496.423 365.738 426.891 365.738 345.872C365.738 255.895 296.457 182.792 210.922 182.792C125.429 182.792 56.1063 256.071 56.1063 345.871C56.1063 414.631 97.3829 476.415 158.98 499.546Z" fill="#3196A9" fill-opacity="0.03" stroke="#F9F9F9" stroke-width="5"/>
<path d="M392.499 393.597L392.5 393.595L50.9628 443.069L48.7708 444.271C48.7709 444.271 48.7709 444.271 48.771 444.272C50.32 447.097 49.3573 450.663 46.796 452.233C44.3129 453.747 41.0802 452.91 39.5704 450.149L39.569 450.146C22.279 418.615 13.1251 382.559 13.1251 345.883C13.1251 230.703 101.983 137.219 210.922 137.219C338.822 137.219 434.099 264.1 402.854 396.439C402.101 399.624 399.151 401.347 396.414 400.629C393.628 399.894 391.739 396.804 392.499 393.597Z" fill="#3196A9" fill-opacity="0.03" stroke="#F9F9F9" stroke-width="5"/>
<path d="M366.324 509.032L366.322 509.033C364.182 511.29 364.184 515.018 366.333 517.284C368.417 519.47 371.72 519.469 373.805 517.274C411.175 477.806 434.638 425.56 439.834 370.185L439.835 370.177C453.667 227.646 347.021 103.193 210.911 103.193C84.1669 103.193 -19.1712 211.943 -19.1712 345.895C-19.1712 360.184 -17.9897 374.437 -15.6718 388.271M366.324 509.032L-18.1367 388.689M366.324 509.032C401.929 471.424 424.249 421.701 429.193 369.003M366.324 509.032L-5.13984 386.196M-15.6718 388.271C-15.6716 388.273 -15.6713 388.274 -15.6711 388.276L-18.1367 388.689M-15.6718 388.271C-15.6718 388.271 -15.6719 388.271 -15.6719 388.271L-18.1367 388.689M-15.6718 388.271C-15.1224 391.511 -12.2798 393.447 -9.5034 392.929M-18.1367 388.689C-17.3746 393.184 -13.3099 396.188 -9.03529 395.384M-9.5034 392.929C-9.50386 392.929 -9.50429 392.929 -9.50474 392.929L-9.03529 395.384M-9.5034 392.929C-6.68861 392.39 -4.61186 389.461 -5.13984 386.196M-9.5034 392.929C-9.50129 392.928 -9.49922 392.928 -9.49711 392.928L-9.03529 395.384M-9.03529 395.384L-5.13984 386.196M-5.13984 386.196C-5.13942 386.199 -5.13902 386.201 -5.13859 386.203L-2.67314 385.789L-5.14073 386.191C-5.14042 386.192 -5.14015 386.194 -5.13984 386.196ZM-5.13984 386.196C-7.34932 373.041 -8.47578 359.479 -8.47578 345.883C-8.47577 218.54 89.8195 114.729 210.911 114.729C341.163 114.729 442.331 233.72 429.193 369.003M429.193 369.003C429.194 369.001 429.194 369 429.194 368.998L426.705 368.765L429.193 369.006C429.193 369.005 429.193 369.004 429.193 369.003Z" fill="#3196A9" fill-opacity="0.03" stroke="#F9F9F9" stroke-width="5"/>
<path d="M-39.7248 321.657L-39.725 321.66C-40.0044 324.95 -42.7064 327.14 -45.5128 326.86L-45.5263 326.858C-48.198 326.606 -50.3963 324.187 -50.3963 321.126C-50.3963 320.945 -50.3886 320.773 -50.3724 320.584L-50.3723 320.584C-38.1472 178.476 74.8265 69.1208 210.912 69.1208C260.592 69.1208 309.432 83.6788 352.645 112.986L356.252 109.737C350.832 99.6144 345.874 89.2532 341.444 78.6415L341.441 78.6343C317.771 22.4239 309.276 -38.8607 314.236 -96.5161L314.236 -96.5188C314.515 -99.8043 317.204 -101.993 320.023 -101.729C322.848 -101.453 325.135 -98.7827 324.871 -95.4334C320.102 -40.1531 328.174 19.278 351.18 73.8877C361.76 99.2326 375.311 123.218 391.477 145.212L391.49 145.23L391.504 145.247C393.11 147.355 393.044 150.924 390.806 153.089C388.528 155.23 385.453 154.828 383.678 153.043L383.67 153.035C337.481 106.986 276.148 80.6678 210.912 80.6678C80.1514 80.6678 -28.0255 185.679 -39.7248 321.657Z" fill="#3196A9" fill-opacity="0.03" stroke="#F9F9F9" stroke-width="5"/>
<path d="M-57.214 247.048L-57.2154 247.052C-58.2306 250.13 -61.292 251.546 -63.9329 250.55L-63.9433 250.546L-63.9538 250.542C-66.1133 249.749 -67.5727 247.564 -67.5727 245.087C-67.5727 244.46 -67.4726 243.805 -67.258 243.149C-25.5491 117.393 85.6151 35.0722 210.922 35.0722C239.518 35.0722 265.986 39.3303 290.92 46.7186L295.234 47.9968L294.041 43.6589C291.845 35.6721 289.87 27.5494 288.169 19.3486L288.168 19.3418C285.655 7.39416 283.657 -5.08112 282.207 -17.724C279.046 -45.6136 278.99 -70.2517 280.704 -95.6289C280.928 -98.9253 283.596 -101.18 286.405 -100.968C289.22 -100.755 291.564 -98.1223 291.367 -94.7817C289.613 -68.9421 289.89 -44.8746 292.813 -19.1274L292.814 -19.1257C294.214 -6.87276 296.158 5.21996 298.593 16.8143C301.283 29.8217 304.63 42.6316 308.533 54.9293L308.539 54.9508L308.547 54.9722C309.277 57.1358 308.637 59.3565 307.22 60.8672C305.816 62.3634 303.819 63.004 301.817 62.2876L301.813 62.2863C272.29 51.7782 241.433 46.6309 210.911 46.6309C90.083 46.6309 -17.0542 125.983 -57.214 247.048Z" fill="#3196A9" fill-opacity="0.03" stroke="#F9F9F9" stroke-width="5"/>
<path d="M258.089 -96.6811L258.089 -96.6847C258.337 -99.9934 255.993 -102.649 253.146 -102.88C250.34 -103.107 247.666 -100.875 247.425 -97.5659C245.699 -72.9711 245.843 -48.385 248.061 -23.9804L248.061 -23.9796C248.807 -15.7467 249.839 -7.60769 251.016 0.454879L251.489 3.68964L248.243 3.29814C236.464 1.87722 224.094 1.05707 210.933 1.05707C96.9977 1.05706 -8.30515 63.6221 -67.6812 165.357L-67.686 165.366C-68.2378 166.303 -68.5002 167.361 -68.5002 168.417C-68.5002 170.416 -67.5435 172.308 -65.9001 173.381L-67.2668 175.474L-65.9 173.381C-63.5 174.948 -60.2457 174.217 -58.6554 171.499C-1.41547 73.4388 100.303 12.5925 210.922 12.5925C225.831 12.5925 241.443 13.6956 257.16 16.1378C260.544 16.6455 263.853 13.475 263.186 9.36877C261.265 -1.80454 259.755 -13.3951 258.7 -25.1001L258.089 -96.6811ZM258.089 -96.6811C256.389 -73.5139 256.567 -48.598 258.7 -25.1017L258.089 -96.6811Z" fill="#3196A9" fill-opacity="0.03" stroke="#F9F9F9" stroke-width="5"/>
<path d="M529.204 331.636L529.206 331.634L678.649 345.242L678.837 347.735C678.838 347.735 678.839 347.735 678.839 347.735C681.657 347.524 684.325 349.776 684.549 353.061C684.774 356.444 682.434 359.036 679.599 359.25L679.596 359.25C669.453 360.026 659.222 360.419 649.191 360.419C612.47 360.419 576.081 355.213 541.066 344.917L537.875 343.979L537.861 347.304C537.773 367.618 535.984 388.727 532.41 408.922L532.409 408.927C526.442 443.017 515.605 475.913 500.197 506.68C498.766 509.522 495.563 510.476 493.043 509.075C491.238 508.062 490.141 506.074 490.141 503.936C490.141 503.001 490.346 502.071 490.782 501.201L490.783 501.2C505.659 471.476 516.128 439.712 521.892 406.777C526.062 383.202 527.698 358.22 527.044 336.474C527.053 334.313 527.929 332.673 529.204 331.636Z" fill="#3196A9" fill-opacity="0.03" stroke="#F9F9F9" stroke-width="5"/>
<path d="M219.521 -21.3147L219.509 -21.3151C216.636 -21.4094 213.781 -21.4446 210.922 -21.4446C160.71 -21.4446 111.13 -10.2045 65.2259 12.0858C62.6324 13.3418 59.47 12.2027 58.204 9.28758L58.1991 9.27656C57.8456 8.47315 57.6819 7.64088 57.6819 6.82502C57.6819 4.55888 58.9042 2.49123 60.8374 1.55059C109.658 -22.1488 160.919 -32.9916 210.911 -32.9916L210.91 -32.9916C210.91 -32.9916 210.915 -32.9916 210.928 -32.9912C210.945 -32.9906 210.964 -32.9898 211 -32.9882L211.01 -32.9877C211.071 -32.9851 211.185 -32.98 211.308 -32.98L213.96 -32.98L213.804 -35.6269C212.573 -56.5464 212.518 -74.4121 213.98 -97.4575L213.981 -97.4792L213.982 -97.501C214.134 -100.807 216.751 -103.124 219.575 -102.979C222.418 -102.834 224.823 -100.251 224.662 -96.9517C223.243 -74.0274 223.076 -52.1959 224.997 -27.5652L224.998 -27.5509L225 -27.5365C225.308 -24.0966 222.493 -21.202 219.521 -21.3147Z" fill="#3196A9" fill-opacity="0.03" stroke="#F9F9F9" stroke-width="5"/>
<path d="M190.275 -60.5003L190.276 -60.4629L190.278 -60.4255C190.437 -57.2384 187.906 -54.7915 185.275 -54.6022C125.401 -50.404 66.6288 -31.0224 15.2987 1.45094C12.8481 2.99531 9.61111 2.21665 8.05233 -0.506363C7.5171 -1.46333 7.26002 -2.50589 7.26002 -3.52701C7.26002 -5.56479 8.24209 -7.46578 9.90571 -8.51653L9.90701 -8.51736C60.5928 -40.5742 118.344 -60.1813 177.337 -65.5019L179.598 -65.7059L179.612 -67.9768C179.667 -77.1483 179.942 -86.4319 180.48 -95.6653L180.48 -95.6659C180.672 -98.9665 183.313 -101.242 186.141 -101.06C188.951 -100.878 191.316 -98.2513 191.151 -94.9226C190.242 -79.479 190.174 -65.4797 190.275 -60.5003Z" fill="#3196A9" fill-opacity="0.03" stroke="#F9F9F9" stroke-width="5"/>
<path d="M638.46 8.17744L638.459 8.17734C612.897 4.01665 591.718 -14.6365 583.264 -40.6194C583.062 -41.2417 582.967 -41.8881 582.967 -42.5246C582.967 -45.0041 584.44 -47.2039 586.624 -48.0006C589.293 -48.9709 592.355 -47.5192 593.354 -44.4424L593.354 -44.4411C600.452 -22.624 618.305 -6.78709 640.048 -3.23749C642.869 -2.76673 645.011 0.119491 644.531 3.37494L644.531 3.37586C644.053 6.62637 641.246 8.63168 638.46 8.17744Z" fill="#3196A9" fill-opacity="0.03" stroke="#F9F9F9" stroke-width="5"/>
<path d="M546.175 -64.5331C546.175 -4.45535 592.508 44.1966 649.181 44.1966C654.621 44.1966 660.093 43.7422 665.433 42.8455C668.258 42.3676 670.389 39.4942 669.893 36.2194L546.175 -64.5331ZM546.175 -64.5331C546.175 -67.8408 548.689 -70.3008 551.529 -70.3008C554.355 -70.3008 556.871 -67.8432 556.871 -64.5331C556.871 -11.0757 598.149 32.6495 649.181 32.6495C654.077 32.6495 658.997 32.2425 663.794 31.4398L546.175 -64.5331ZM663.796 31.4395C666.587 30.9779 669.399 32.97 669.893 36.2184L663.796 31.4395Z" fill="#3196A9" fill-opacity="0.03" stroke="#F9F9F9" stroke-width="5"/>
<path d="M524.389 -79.9541C523.827 -74.8668 523.546 -69.6876 523.546 -64.5449C523.546 -15.2875 549.249 29.6378 590.754 52.6328L590.755 52.6338C593.358 54.073 594.473 57.5836 593.02 60.4974L593.018 60.4997C591.608 63.3336 588.399 64.2994 585.879 62.8984L585.876 62.8968C540.872 37.9506 512.851 -10.8525 512.851 -64.5449C512.851 -70.1378 513.155 -75.7757 513.764 -81.3077L513.764 -81.3083C514.122 -84.5702 516.858 -86.6982 519.684 -86.3651C522.505 -86.0198 524.741 -83.2517 524.389 -79.9541ZM524.389 -79.9541C524.39 -79.9553 524.39 -79.9564 524.39 -79.9576L526.875 -79.6829M524.389 -79.9541C524.389 -79.9526 524.389 -79.9511 524.389 -79.9496L526.875 -79.6829M526.875 -79.6829C526.322 -74.6873 526.046 -69.5986 526.046 -64.5449C526.046 -16.1497 551.296 27.9136 591.965 50.446L526.875 -79.6829Z" fill="#3196A9" fill-opacity="0.03" stroke="#F9F9F9" stroke-width="5"/>
<path d="M608.38 72.7711L608.377 72.7701C606.14 72.0333 604.594 69.8035 604.594 67.2612C604.594 66.6841 604.678 66.0956 604.856 65.4893C605.776 62.3944 608.807 60.8479 611.52 61.7298C623.658 65.7489 636.326 67.7816 649.18 67.7816C660.028 67.7816 670.8 66.3314 681.193 63.4527C683.92 62.7028 686.895 64.3944 687.677 67.548L687.678 67.5523C688.478 70.7593 686.621 73.8664 683.84 74.6324L683.836 74.6334C672.579 77.7517 660.908 79.3286 649.169 79.3286C635.263 79.3286 621.534 77.1235 608.38 72.7711Z" fill="#3196A9" fill-opacity="0.03" stroke="#F9F9F9" stroke-width="5"/>
<path d="M481.369 -91.0721L481.37 -91.0762C481.824 -94.3314 484.632 -96.3536 487.406 -95.9153L487.407 -95.9152C490.231 -95.4702 492.384 -92.6305 491.925 -89.3316C490.783 -81.171 490.201 -72.8349 490.201 -64.5337C490.201 27.6772 561.39 102.924 649.169 102.924C664.63 102.924 679.904 100.604 694.585 95.9976L694.586 95.9974C697.289 95.1484 700.298 96.727 701.183 99.8551C702.072 103.047 700.325 106.207 697.561 107.075C681.921 111.971 665.639 114.46 649.169 114.46C555.749 114.46 479.516 34.2858 479.516 -64.5337C479.516 -73.4195 480.138 -82.339 481.369 -91.0721Z" fill="#3196A9" fill-opacity="0.03" stroke="#F9F9F9" stroke-width="5"/>
<path d="M448.443 -96.5645L448.443 -96.5655C448.904 -99.8143 451.695 -101.84 454.525 -101.399C457.353 -100.953 459.507 -98.1132 459.034 -94.8145L459.034 -94.8116C455.089 -67.0905 456.652 -38.2883 463.572 -11.4515C479.177 49.294 521.575 99.6712 577.107 123.296L577.334 123.416L577.413 123.437C595.487 131.792 622.701 138.046 649.203 138.046C668.066 138.046 686.634 135.201 704.4 129.58L704.402 129.579C707.095 128.724 710.113 130.293 711.005 133.425C711.908 136.592 710.163 139.77 707.397 140.65C688.669 146.58 669.086 149.581 649.192 149.581C613.177 149.581 581.606 138.569 572.852 133.899L572.758 133.849L572.661 133.807C514.347 108.8 469.7 55.7116 453.249 -8.37497L453.248 -8.37819C445.756 -37.4052 444.335 -67.675 448.443 -96.5645Z" fill="#3196A9" fill-opacity="0.03" stroke="#F9F9F9" stroke-width="5"/>
<path d="M424.17 11.7914L424.168 11.7849C413.089 -24.2708 410.417 -62.7566 414.98 -98.017C415.401 -101.269 418.179 -103.336 420.973 -102.954C423.799 -102.535 425.978 -99.7023 425.561 -96.4308C421.166 -62.3335 423.919 -25.7031 434.321 8.17202C453.612 71.5609 497.683 123.875 555.272 151.662C582.758 165.135 615.494 173.2 649.181 173.2C669.998 173.2 690.639 170.208 710.52 164.305L710.525 164.303C713.231 163.494 716.231 165.12 717.068 168.268L717.069 168.27C717.919 171.458 716.125 174.609 713.352 175.429L713.35 175.43C692.551 181.603 670.954 184.735 649.181 184.735C634.33 184.735 615.701 182.647 597.715 178.739C579.699 174.824 562.534 169.128 550.503 162.015L550.415 161.963L550.324 161.919C490.325 132.763 444.344 78.0872 424.17 11.7914Z" fill="#3196A9" fill-opacity="0.03" stroke="#F9F9F9" stroke-width="5"/>
<path d="M391.967 -96.5433L391.967 -96.5466C392.335 -99.8198 390.098 -102.61 387.262 -102.962L387.261 -102.962C384.473 -103.31 381.719 -101.198 381.351 -97.9117C376.476 -54.1754 381.353 -8.64706 395.797 33.0195L395.798 33.0203C419.303 100.897 465.893 156.262 526.985 189.036L527.073 189.083L527.156 189.137C549.561 203.56 600.205 219.877 649.169 219.877C671.607 219.877 693.9 216.959 715.437 211.205L715.438 211.204C718.22 210.464 720.098 207.368 719.328 204.153C718.57 200.988 715.617 199.273 712.871 200.001C712.87 200.001 712.869 200.001 712.869 200.002L712.227 197.585C691.738 203.058 670.52 205.83 649.169 205.83L391.967 -96.5433ZM391.967 -96.5433C387.243 -54.0248 392.121 -10.5074 405.819 28.974M391.967 -96.5433L405.819 28.974M405.819 28.974C428.427 94.2524 473.324 147.543 532.294 178.989M405.819 28.974L532.294 178.989M532.294 178.989C566.787 197.676 607.411 208.342 649.17 208.33L532.294 178.989Z" fill="#3196A9" fill-opacity="0.03" stroke="#F9F9F9" stroke-width="5"/>
<path d="M440.59 151.165L440.664 151.262L440.747 151.351C460.693 172.779 483.44 190.972 508.365 205.42C552.173 230.904 600.787 243.476 649.18 243.476C670.087 243.476 690.983 241.138 711.28 236.52L711.281 236.52C714.038 235.892 716.937 237.712 717.598 240.916C718.255 244.158 716.28 247.168 713.484 247.808C692.471 252.587 670.831 255.012 649.191 255.012C596.442 255.012 546.485 240.697 503.313 215.584L503.31 215.583C477.46 200.594 453.84 181.711 433.141 159.45L433.038 159.339L433.024 159.328C433.014 159.316 433.002 159.303 432.988 159.289C426.033 151.852 419.375 143.977 413.222 135.863L413.138 135.753L413.074 135.686L413.068 135.678L413.041 135.644C413.028 135.627 413.01 135.603 412.988 135.576C394.508 111.341 379.554 84.5661 368.542 55.976L368.498 55.862L368.443 55.7528C368.405 55.6764 368.372 55.5994 368.308 55.4467C368.292 55.407 368.273 55.3622 368.252 55.3109C347.748 2.08509 343.654 -45.2093 348.265 -97.7574L348.265 -97.7585C348.553 -101.049 351.255 -103.237 354.071 -102.964C356.928 -102.686 359.233 -99.9609 358.916 -96.7042L358.915 -96.6923L358.914 -96.6804C354.458 -45.8373 358.413 -0.603043 377.902 50.2812L377.923 50.336L377.946 50.3898C378.02 50.5591 378.045 50.6107 378.059 50.6451C378.088 50.7334 378.117 50.8057 378.139 50.8584C378.168 50.9285 378.198 50.9922 378.212 51.023C388.798 78.6803 403.217 104.582 421.07 128.024L421.144 128.122L421.228 128.211C428.011 135.513 434.52 143.218 440.59 151.165ZM433.095 159.407L433.087 159.399C433.092 159.404 433.095 159.407 433.096 159.408L433.095 159.407Z" fill="#3196A9" fill-opacity="0.03" stroke="#F9F9F9" stroke-width="5"/>
<path d="M483.958 231.202C483.967 231.207 483.975 231.212 483.982 231.217L483.986 231.219L484.045 231.256C532.776 261.598 589.63 278.608 649.192 278.608C667.932 278.608 686.826 276.895 705.352 273.526L705.353 273.526C708.13 273.019 710.97 274.972 711.505 278.211C712.035 281.503 709.947 284.395 707.128 284.909C688.012 288.388 668.513 290.155 649.192 290.155C588.573 290.155 529.541 273.044 478.165 240.906L478.112 240.873L478.058 240.843C478.021 240.822 477.963 240.784 477.765 240.641L477.697 240.591L477.626 240.546C468.331 234.723 459.329 228.423 450.61 221.693L446.813 224.721C470.791 276.629 477.814 332.633 470.563 385.822C464.025 433.527 445.617 478.798 417.311 516.753L417.311 516.753C415.473 519.22 412.174 519.601 409.902 517.711L409.899 517.708C408.552 516.592 407.81 514.888 407.81 513.124C407.81 511.853 408.204 510.578 408.994 509.516C436.113 473.155 453.745 429.799 459.987 384.137C469.736 312.788 451.803 242.85 413.185 188.047C411.493 185.564 411.796 182.188 413.97 180.193L413.977 180.186L413.985 180.179C416.161 178.149 419.294 178.481 421.113 180.374L421.118 180.379C439.841 199.767 460.824 216.753 483.479 230.868C483.486 230.873 483.499 230.882 483.523 230.899L483.532 230.906C483.557 230.924 483.597 230.953 483.646 230.987C483.712 231.038 483.765 231.075 483.799 231.097C483.821 231.112 483.84 231.125 483.852 231.133L483.859 231.137C483.9 231.165 483.935 231.187 483.958 231.202ZM483.876 231.148C483.88 231.151 483.879 231.15 483.874 231.147L483.876 231.148Z" fill="#3196A9" fill-opacity="0.03" stroke="#F9F9F9" stroke-width="5"/>
<path d="M496.303 277.776L496.311 277.78L496.319 277.784C544.751 302.047 597.789 313.74 649.158 313.751L649.158 313.751C664.432 313.751 679.741 312.743 694.665 310.748L694.669 310.748C697.459 310.37 700.229 312.458 700.621 315.725C701.007 319.041 698.795 321.826 695.982 322.199L695.981 322.199C680.628 324.246 664.877 325.287 649.169 325.287C599.649 325.287 550.79 314.927 505.428 294.669L501.263 292.809L501.936 297.32C507.067 331.74 506.672 365.773 501.311 398.685L501.311 398.688C494.515 440.727 479.775 480.227 457.496 516.088C455.846 518.742 452.586 519.398 450.184 517.739C448.614 516.647 447.716 514.813 447.716 512.867C447.716 511.743 448.01 510.636 448.618 509.661L448.621 509.656C470.059 475.15 484.247 437.144 490.783 396.694C497.018 358.452 495.949 320.143 488.846 284.228L488.844 284.217C488.422 282.134 489.148 279.884 490.833 278.47C492.556 277.046 494.753 276.985 496.303 277.776Z" fill="#3196A9" fill-opacity="0.03" stroke="#F9F9F9" stroke-width="5"/>
<path d="M557.941 380.205L557.94 380.215C556.961 391.634 555.416 403.146 553.337 414.505C548.978 439.086 542.107 463.384 532.923 486.697L532.923 486.698C532.635 487.427 532.501 488.186 532.501 488.949C532.501 491.298 533.818 493.414 535.838 494.296L535.839 494.296C538.46 495.441 541.59 494.191 542.761 491.204L542.762 491.2C552.245 467.122 559.335 442.037 563.823 416.7L563.824 416.693L563.826 416.685C565.428 407.94 566.733 399.067 567.71 390.196L568.006 387.505L570.665 388.014C595.389 392.75 620.171 395.527 649.18 395.527C651.587 395.527 654.004 395.498 656.63 395.466C656.853 395.463 657.076 395.46 657.301 395.457L657.332 395.457L657.351 395.457C657.356 395.457 657.364 395.457 657.377 395.457C657.411 395.456 657.471 395.454 657.554 395.45C657.721 395.44 657.975 395.419 658.287 395.373C658.922 395.279 659.729 395.089 660.503 394.725C661.27 394.365 661.946 393.863 662.436 393.163C662.912 392.483 663.319 391.466 663.326 389.878L557.941 380.205ZM557.941 380.205C558.047 378.904 558.708 377.424 559.734 376.445M557.941 380.205L559.734 376.445M559.734 376.445C561.075 375.177 562.884 374.774 564.315 375.065L559.734 376.445ZM656.904 383.922L656.904 383.922C656.903 383.922 656.902 383.922 656.902 383.922L656.903 383.922C656.903 383.922 656.904 383.922 656.904 383.922ZM656.904 383.922C656.905 383.922 656.908 383.922 656.912 383.922C656.918 383.922 656.926 383.922 656.937 383.922C656.975 383.922 657.041 383.924 657.131 383.928C657.313 383.937 657.588 383.958 657.923 384.005C658.608 384.102 659.477 384.299 660.311 384.684C661.137 385.066 661.866 385.601 662.391 386.352C662.902 387.083 663.332 388.175 663.326 389.877L656.904 383.922Z" fill="#3196A9" fill-opacity="0.03" stroke="#F9F9F9" stroke-width="5"/>
<path d="M1227.09 44.2085L1227.09 44.2085C1212.82 44.2085 1201.43 56.4115 1201.43 71.1273C1201.43 85.8323 1212.82 98.0345 1227.09 98.0345C1241.35 98.0345 1252.74 85.844 1252.74 71.1273C1252.74 56.4109 1241.36 44.2215 1227.09 44.2085ZM1227.09 109.582C1207.18 109.582 1190.74 92.4517 1190.74 71.1273C1190.74 49.8025 1207.16 32.6731 1227.09 32.6731C1247 32.6731 1263.44 49.803 1263.44 71.1273C1263.44 92.4517 1247 109.582 1227.09 109.582Z" fill="#3196A9" fill-opacity="0.03" stroke="#F9F9F9" stroke-width="5"/>
<path d="M1227.08 143.619C1189.36 143.619 1158.45 111.223 1158.45 71.1271C1158.45 31.0318 1189.37 -1.36444 1227.08 -1.36444C1264.8 -1.36444 1295.71 31.0316 1295.71 71.1271C1295.71 111.223 1264.8 143.619 1227.08 143.619ZM1227.08 132.083C1259.16 132.083 1285.03 104.614 1285.03 71.1271C1285.03 37.6401 1259.16 10.171 1227.08 10.171C1195 10.171 1169.13 37.6401 1169.13 71.1271C1169.13 104.614 1195 132.083 1227.08 132.083Z" fill="#3196A9" fill-opacity="0.03" stroke="#F9F9F9" stroke-width="5"/>
<path d="M1227.08 177.656C1171.55 177.656 1126.16 129.994 1126.16 71.1274C1126.16 12.2604 1171.55 -35.413 1227.08 -35.413C1282.6 -35.413 1328 12.2604 1328 71.1275C1328 129.994 1282.6 177.656 1227.08 177.656ZM1227.09 166.121C1276.97 166.121 1317.32 123.386 1317.32 71.1275C1317.32 18.8693 1276.97 -23.866 1227.09 -23.866C1177.21 -23.866 1136.86 18.8693 1136.86 71.1274C1136.86 123.386 1177.21 166.121 1227.09 166.121Z" fill="#3196A9" fill-opacity="0.03" stroke="#F9F9F9" stroke-width="5"/>
<path d="M1227.09 211.705C1153.76 211.705 1093.87 148.765 1093.87 71.1268C1093.87 -6.51108 1153.76 -69.451 1227.09 -69.451C1300.42 -69.451 1360.3 -6.51107 1360.3 71.1268C1360.3 148.765 1300.42 211.705 1227.09 211.705ZM1227.09 200.158C1294.77 200.158 1349.61 142.156 1349.61 71.1268C1349.61 0.0973084 1294.77 -57.904 1227.09 -57.904C1159.41 -57.904 1104.57 0.0973055 1104.57 71.1268C1104.57 142.145 1159.41 200.158 1227.09 200.158Z" fill="#3196A9" fill-opacity="0.03" stroke="#F9F9F9" stroke-width="5"/>
<path d="M1204.45 -101.861L1204.45 -101.861C1211.82 -102.938 1219.45 -103.5 1227.08 -103.5C1246.06 -103.5 1264.72 -100.119 1282.52 -93.459C1348.3 -68.7653 1392.59 -2.66812 1392.59 71.1149C1392.59 167.524 1318.22 245.73 1227.09 245.73C1135.66 245.73 1061.59 167.469 1061.59 71.1149C1061.59 -15.8606 1123.12 -90.1397 1204.45 -101.861ZM1279.02 -82.5477L1279.02 -82.5484C1262.36 -88.7904 1244.87 -91.9532 1227.08 -91.9532C1219.92 -91.9532 1212.78 -91.4324 1205.86 -90.4132C1129.58 -79.4251 1072.26 -9.89343 1072.26 71.1265C1072.26 161.103 1141.54 234.206 1227.08 234.206C1312.57 234.206 1381.89 160.927 1381.89 71.1265C1381.89 2.3674 1340.62 -59.4168 1279.02 -82.5477Z" fill="#3196A9" fill-opacity="0.03" stroke="#F9F9F9" stroke-width="5"/>
<path d="M1045.5 23.4009L1045.5 23.4035L1387.04 -26.0709L1389.23 -27.273C1389.23 -27.2732 1389.23 -27.2733 1389.23 -27.2735C1387.68 -30.0985 1388.64 -33.6653 1391.2 -35.2345C1393.69 -36.7491 1396.92 -35.912 1398.43 -33.1508L1398.43 -33.1482C1415.72 -1.61737 1424.87 34.4392 1424.87 71.1153C1424.87 186.295 1336.02 279.779 1227.08 279.779C1099.18 279.779 1003.9 152.898 1035.15 20.5591C1035.9 17.3741 1038.85 15.6508 1041.59 16.3692C1044.37 17.1036 1046.26 20.1938 1045.5 23.4009Z" fill="#3196A9" fill-opacity="0.03" stroke="#F9F9F9" stroke-width="5"/>
<path d="M1071.68 -92.0336L1071.68 -92.0353C1073.82 -94.2919 1073.82 -98.0201 1071.67 -100.285C1069.58 -102.472 1066.28 -102.471 1064.2 -100.276C1026.82 -60.8083 1003.36 -8.56146 998.166 46.8132L998.165 46.8212C984.333 189.352 1090.98 313.805 1227.09 313.805C1353.83 313.805 1457.17 205.055 1457.17 71.1033C1457.17 56.8137 1455.99 42.5606 1453.67 28.7267M1071.68 -92.0336L1456.14 28.3092M1071.68 -92.0336C1036.07 -54.426 1013.75 -4.70248 1008.81 47.9953M1071.68 -92.0336L1443.14 30.802M1453.67 28.7267C1453.67 28.7253 1453.67 28.7239 1453.67 28.7224L1456.14 28.3092M1453.67 28.7267C1453.67 28.7269 1453.67 28.727 1453.67 28.7271L1456.14 28.3092M1453.67 28.7267C1453.12 25.4875 1450.28 23.5512 1447.5 24.0693M1456.14 28.3092C1455.37 23.8144 1451.31 20.8101 1447.04 21.6136M1447.5 24.0693C1447.5 24.0692 1447.5 24.0692 1447.5 24.0691L1447.04 21.6136M1447.5 24.0693C1444.69 24.6083 1442.61 27.5372 1443.14 30.802M1447.5 24.0693C1447.5 24.0697 1447.5 24.0701 1447.5 24.0705L1447.04 21.6136M1447.04 21.6136L1443.14 30.802M1443.14 30.802C1443.14 30.7995 1443.14 30.7971 1443.14 30.7946L1440.67 31.2087L1443.14 30.8075C1443.14 30.8057 1443.14 30.8038 1443.14 30.802ZM1443.14 30.802C1445.35 43.9571 1446.48 57.5194 1446.48 71.115C1446.48 198.458 1348.18 302.269 1227.09 302.269C1096.84 302.269 995.669 183.278 1008.81 47.9953M1008.81 47.9953C1008.81 47.9967 1008.81 47.9983 1008.81 47.9997L1011.3 48.2332L1008.81 47.9915C1008.81 47.9928 1008.81 47.994 1008.81 47.9953Z" fill="#3196A9" fill-opacity="0.03" stroke="#F9F9F9" stroke-width="5"/>
<path d="M1477.72 95.3409L1477.72 95.3381C1478 92.0476 1480.71 89.8584 1483.51 90.1384L1483.53 90.1397C1486.2 90.3916 1488.4 92.8106 1488.4 95.8719C1488.4 96.0526 1488.39 96.2254 1488.37 96.414L1488.37 96.4145C1476.15 238.522 1363.17 347.877 1227.09 347.877C1177.41 347.877 1128.57 333.319 1085.35 304.012L1081.75 307.261C1087.17 317.384 1092.13 327.745 1096.56 338.357L1096.56 338.364C1120.23 394.574 1128.72 455.859 1123.76 513.514L1123.76 513.517C1123.49 516.802 1120.8 518.991 1117.98 518.727C1115.15 518.451 1112.87 515.781 1113.13 512.431C1117.9 457.151 1109.83 397.72 1086.82 343.11C1076.24 317.765 1062.69 293.78 1046.52 271.786L1046.51 271.768L1046.5 271.751C1044.89 269.643 1044.96 266.074 1047.19 263.909C1049.47 261.768 1052.55 262.17 1054.32 263.955L1054.33 263.963C1100.52 310.012 1161.85 336.33 1227.09 336.33C1357.85 336.33 1466.03 231.32 1477.72 95.3409Z" fill="#3196A9" fill-opacity="0.03" stroke="#F9F9F9" stroke-width="5"/>
<path d="M1495.21 169.95L1495.22 169.946C1496.23 166.868 1499.29 165.452 1501.93 166.448L1501.94 166.452L1501.95 166.456C1504.11 167.249 1505.57 169.434 1505.57 171.911C1505.57 172.538 1505.47 173.193 1505.26 173.849C1463.55 299.605 1352.38 381.926 1227.08 381.926C1198.48 381.926 1172.01 377.668 1147.08 370.279L1142.77 369.001L1143.96 373.339C1146.16 381.326 1148.13 389.449 1149.83 397.649L1149.83 397.656C1152.34 409.604 1154.34 422.079 1155.79 434.722C1158.95 462.612 1159.01 487.25 1157.3 512.627C1157.07 515.923 1154.4 518.178 1151.59 517.966C1148.78 517.753 1146.44 515.12 1146.63 511.78C1148.39 485.94 1148.11 461.873 1145.19 436.125L1145.19 436.124C1143.79 423.871 1141.84 411.778 1139.41 400.184C1136.72 387.176 1133.37 374.366 1129.47 362.069L1129.46 362.047L1129.45 362.026C1128.72 359.862 1129.36 357.642 1130.78 356.131C1132.18 354.635 1134.18 353.994 1136.18 354.71L1136.19 354.712C1165.71 365.22 1196.57 370.367 1227.09 370.367C1347.92 370.367 1455.05 291.015 1495.21 169.95Z" fill="#3196A9" fill-opacity="0.03" stroke="#F9F9F9" stroke-width="5"/>
<path d="M1179.91 513.679L1179.91 513.683C1179.66 516.991 1182.01 519.647 1184.85 519.878C1187.66 520.105 1190.33 517.873 1190.58 514.564C1192.3 489.969 1192.16 465.383 1189.94 440.978L1189.94 440.978C1189.19 432.745 1188.16 424.606 1186.98 416.543L1186.51 413.308L1189.76 413.7C1201.54 415.121 1213.91 415.941 1227.07 415.941C1341 415.941 1446.31 353.376 1505.68 251.641L1505.69 251.632C1506.24 250.695 1506.5 249.637 1506.5 248.581C1506.5 246.583 1505.54 244.69 1503.9 243.617L1505.27 241.524L1503.9 243.617C1501.5 242.05 1498.25 242.781 1496.66 245.5C1439.42 343.559 1337.7 404.406 1227.08 404.406C1212.17 404.406 1196.56 403.302 1180.84 400.86C1177.46 400.353 1174.15 403.523 1174.81 407.629C1176.74 418.803 1178.25 430.393 1179.3 442.098L1179.91 513.679ZM1179.91 513.679C1181.61 490.512 1181.43 465.596 1179.3 442.1L1179.91 513.679Z" fill="#3196A9" fill-opacity="0.03" stroke="#F9F9F9" stroke-width="5"/>
<path d="M908.796 85.3621L908.794 85.3637L759.351 71.7556L759.163 69.2627C759.162 69.2627 759.161 69.2627 759.161 69.2628C756.343 69.4744 753.675 67.2225 753.451 63.9371C753.226 60.5545 755.566 57.9621 758.401 57.748L758.404 57.7478C768.547 56.9724 778.778 56.579 788.809 56.579C825.53 56.579 861.919 61.7855 896.934 72.0813L900.125 73.0195L900.139 69.6936C900.227 49.3798 902.016 28.2708 905.59 8.07587L905.591 8.07118C911.558 -26.0189 922.395 -58.9151 937.803 -89.6822C939.234 -92.5244 942.437 -93.4781 944.957 -92.0774C946.762 -91.0639 947.859 -89.0757 947.859 -86.9377C947.859 -86.0032 947.654 -85.0733 947.218 -84.2033L947.217 -84.2021C932.341 -54.4779 921.872 -22.7139 916.108 10.2207C911.938 33.7965 910.302 58.7779 910.956 80.524C910.947 82.6853 910.071 84.3247 908.796 85.3621Z" fill="#3196A9" fill-opacity="0.03" stroke="#F9F9F9" stroke-width="5"/>
<path d="M843.194 -10.3231L840.895 -10.592C832.566 -11.5664 824.098 -12.3881 815.509 -12.9086L815.502 -12.909C813.736 -13.0207 811.959 -13.1021 810.148 -13.185C809.721 -13.2046 809.292 -13.2242 808.861 -13.2444C806.041 -13.3721 803.438 -11.041 803.302 -7.73222L803.301 -7.72534C803.158 -4.45429 805.581 -1.84659 808.415 -1.7154C810.576 -1.62194 812.755 -1.51648 814.894 -1.38728L814.896 -1.38713C825.754 -0.719983 836.483 0.310239 846.796 1.69269L843.194 -10.3231ZM843.194 -10.3231L843.639 -12.5942M843.194 -10.3231L843.639 -12.5942M843.639 -12.5942C846.1 -25.1488 849.12 -37.7573 852.721 -50.153M843.639 -12.5942L852.721 -50.153M852.72 -2.96071C855.298 -17.5432 858.731 -32.2514 862.929 -46.7009C863.095 -47.2737 863.173 -47.8547 863.173 -48.4283C863.173 -50.9832 861.605 -53.2248 859.348 -53.9563L852.72 -2.96071ZM852.72 -2.96071C852.475 -1.65574 851.705 -0.241316 850.55 0.65409C849.424 1.51985 847.913 1.84166 846.796 1.69273L852.72 -2.96071ZM852.721 -50.153C853.629 -53.2717 856.65 -54.8278 859.347 -53.9566L852.721 -50.153Z" fill="#3196A9" fill-opacity="0.03" stroke="#F9F9F9" stroke-width="5"/>
<path d="M891.825 481.531C891.825 421.453 845.492 372.801 788.819 372.801C783.379 372.801 777.907 373.256 772.567 374.153C769.742 374.63 767.611 377.504 768.107 380.779L891.825 481.531ZM891.825 481.531C891.825 484.839 889.311 487.299 886.471 487.299C883.645 487.299 881.129 484.841 881.129 481.531C881.129 428.074 839.851 384.349 788.819 384.349C783.923 384.349 779.003 384.756 774.206 385.558L891.825 481.531ZM774.204 385.559C771.413 386.02 768.601 384.028 768.107 380.78L774.204 385.559Z" fill="#3196A9" fill-opacity="0.03" stroke="#F9F9F9" stroke-width="5"/>
<path d="M913.611 496.952C914.173 491.865 914.454 486.686 914.454 481.543C914.454 432.286 888.751 387.36 847.246 364.365L847.245 364.364C844.642 362.925 843.527 359.414 844.98 356.501L844.982 356.498C846.392 353.664 849.601 352.699 852.121 354.1L852.124 354.101C897.128 379.047 925.149 427.851 925.149 481.543C925.149 487.136 924.845 492.774 924.236 498.306L924.236 498.306C923.878 501.568 921.142 503.696 918.316 503.363C915.495 503.018 913.259 500.25 913.611 496.952ZM913.611 496.952C913.61 496.953 913.61 496.954 913.61 496.956L911.125 496.681M913.611 496.952C913.611 496.951 913.611 496.949 913.611 496.948L911.125 496.681M911.125 496.681C911.678 491.685 911.954 486.597 911.954 481.543C911.954 433.148 886.704 389.084 846.035 366.552L911.125 496.681Z" fill="#3196A9" fill-opacity="0.03" stroke="#F9F9F9" stroke-width="5"/>
<path d="M829.62 344.227L829.623 344.228C831.86 344.965 833.406 347.194 833.406 349.737C833.406 350.314 833.322 350.902 833.144 351.509C832.224 354.604 829.193 356.15 826.48 355.268C814.342 351.249 801.674 349.216 788.82 349.216C777.972 349.216 767.2 350.667 756.807 353.545C754.08 354.295 751.105 352.604 750.323 349.45L750.322 349.446C749.522 346.239 751.379 343.132 754.16 342.366L754.164 342.365C765.421 339.246 777.092 337.669 788.831 337.669C802.737 337.669 816.466 339.875 829.62 344.227Z" fill="#3196A9" fill-opacity="0.03" stroke="#F9F9F9" stroke-width="5"/>
<path d="M956.631 508.07L956.63 508.074C956.176 511.329 953.368 513.352 950.594 512.913L950.593 512.913C947.769 512.468 945.616 509.629 946.075 506.33C947.217 498.169 947.799 489.833 947.799 481.532C947.799 389.321 876.61 314.074 788.831 314.074C773.37 314.074 758.096 316.394 743.415 321L743.414 321.001C740.711 321.85 737.702 320.271 736.817 317.143C735.928 313.951 737.675 310.791 740.439 309.923C756.079 305.027 772.361 302.538 788.831 302.538C882.251 302.538 958.484 382.712 958.484 481.532C958.484 490.417 957.862 499.337 956.631 508.07Z" fill="#3196A9" fill-opacity="0.03" stroke="#F9F9F9" stroke-width="5"/>
<path d="M989.557 513.563L989.557 513.564C989.096 516.812 986.305 518.838 983.475 518.397C980.647 517.951 978.493 515.111 978.966 511.813L978.966 511.81C982.911 484.089 981.348 455.286 974.428 428.45C958.823 367.704 916.425 317.327 860.893 293.702L860.666 293.582L860.587 293.561C842.513 285.206 815.299 278.952 788.797 278.952C769.934 278.952 751.366 281.797 733.6 287.418L733.598 287.419C730.905 288.274 727.887 286.705 726.995 283.573C726.092 280.407 727.837 277.228 730.603 276.348C749.331 270.418 768.914 267.417 788.808 267.417C824.823 267.417 856.394 278.429 865.148 283.099L865.242 283.149L865.339 283.191C923.653 308.198 968.3 361.286 984.751 425.373L984.752 425.376C992.244 454.403 993.665 484.673 989.557 513.563Z" fill="#3196A9" fill-opacity="0.03" stroke="#F9F9F9" stroke-width="5"/>
<path d="M1013.83 405.207L1013.83 405.213C1024.91 441.269 1027.58 479.755 1023.02 515.015C1022.6 518.267 1019.82 520.334 1017.03 519.952C1014.2 519.533 1012.02 516.7 1012.44 513.429C1016.83 479.331 1014.08 442.701 1003.68 408.826C984.388 345.437 940.317 293.123 882.728 265.336C855.242 251.863 822.506 243.798 788.819 243.798C768.002 243.798 747.361 246.79 727.48 252.693L727.475 252.695C724.769 253.504 721.769 251.878 720.932 248.73L720.931 248.728C720.081 245.54 721.875 242.389 724.648 241.569L724.65 241.568C745.449 235.395 767.046 232.263 788.819 232.263C803.67 232.263 822.299 234.351 840.285 238.259C858.301 242.174 875.466 247.87 887.497 254.983L887.585 255.035L887.676 255.079C947.675 284.235 993.656 338.911 1013.83 405.207Z" fill="#3196A9" fill-opacity="0.03" stroke="#F9F9F9" stroke-width="5"/>
<path d="M1046.03 513.541L1046.03 513.545C1045.66 516.818 1047.9 519.608 1050.74 519.96L1050.74 519.96C1053.53 520.308 1056.28 518.196 1056.65 514.91C1061.52 471.173 1056.65 425.645 1042.2 383.979L1042.2 383.978C1018.7 316.101 972.107 260.736 911.015 227.962L910.927 227.915L910.844 227.861C888.439 213.438 837.795 197.121 788.831 197.121C766.393 197.121 744.1 200.039 722.563 205.793L722.562 205.794C719.78 206.535 717.902 209.63 718.672 212.845C719.43 216.01 722.383 217.725 725.129 216.997C725.13 216.997 725.131 216.997 725.131 216.996L725.773 219.413C746.262 213.94 767.48 211.168 788.831 211.168L1046.03 513.541ZM1046.03 513.541C1050.76 471.023 1045.88 427.505 1032.18 388.024M1046.03 513.541L1032.18 388.024M1032.18 388.024C1009.57 322.746 964.676 269.455 905.706 238.009M1032.18 388.024L905.706 238.009M905.706 238.009C871.213 219.322 830.589 208.656 788.83 208.668L905.706 238.009Z" fill="#3196A9" fill-opacity="0.03" stroke="#F9F9F9" stroke-width="5"/>
<path d="M997.41 265.833L997.336 265.736L997.253 265.647C977.307 244.219 954.56 226.026 929.635 211.578C885.827 186.094 837.213 173.522 788.82 173.522C767.913 173.522 747.017 175.86 726.72 180.478L726.719 180.478C723.962 181.106 721.063 179.286 720.402 176.082C719.745 172.84 721.72 169.83 724.516 169.19C745.529 164.411 767.169 161.986 788.809 161.986C841.558 161.986 891.515 176.301 934.687 201.414L934.69 201.415C960.54 216.404 984.16 235.287 1004.86 257.548L1004.96 257.659L1004.98 257.671C1004.99 257.682 1005 257.695 1005.01 257.709C1011.97 265.146 1018.63 273.021 1024.78 281.135L1024.86 281.245L1024.93 281.312L1024.93 281.32L1024.96 281.354C1024.97 281.371 1024.99 281.395 1025.01 281.422C1043.49 305.657 1058.45 332.432 1069.46 361.022L1069.5 361.136L1069.56 361.245C1069.6 361.322 1069.63 361.399 1069.69 361.551C1069.71 361.591 1069.73 361.636 1069.75 361.687C1090.25 414.913 1094.35 462.207 1089.73 514.755L1089.73 514.757C1089.45 518.047 1086.75 520.235 1083.93 519.962C1081.07 519.684 1078.77 516.959 1079.08 513.702L1079.09 513.69L1079.09 513.678C1083.54 462.835 1079.59 417.601 1060.1 366.717L1060.08 366.662L1060.05 366.608C1059.98 366.439 1059.96 366.387 1059.94 366.353C1059.91 366.265 1059.88 366.192 1059.86 366.14C1059.83 366.07 1059.8 366.006 1059.79 365.975C1049.2 338.318 1034.78 312.416 1016.93 288.974L1016.86 288.877L1016.77 288.787C1009.99 281.485 1003.48 273.78 997.41 265.833ZM1004.91 257.591L1004.91 257.599C1004.91 257.594 1004.9 257.591 1004.9 257.59L1004.91 257.591Z" fill="#3196A9" fill-opacity="0.03" stroke="#F9F9F9" stroke-width="5"/>
<path d="M954.042 185.796C954.033 185.791 954.025 185.786 954.018 185.781L954.014 185.779L953.955 185.742C905.224 155.401 848.37 138.39 788.808 138.39C770.068 138.39 751.174 140.104 732.648 143.472L732.647 143.472C729.87 143.979 727.03 142.027 726.495 138.788C725.965 135.495 728.053 132.603 730.871 132.089C749.988 128.61 769.487 126.843 788.808 126.843C849.427 126.843 908.459 143.954 959.835 176.092L959.888 176.125L959.942 176.155C959.979 176.176 960.037 176.214 960.235 176.357L960.303 176.407L960.374 176.452C969.669 182.275 978.671 188.575 987.39 195.305L991.187 192.277C967.209 140.369 960.186 84.3652 967.437 31.1756C973.975 -16.529 992.383 -61.8004 1020.69 -99.7545L1020.69 -99.7552C1022.53 -102.222 1025.83 -102.603 1028.1 -100.713L1028.1 -100.71C1029.45 -99.5938 1030.19 -97.8896 1030.19 -96.1255C1030.19 -94.8554 1029.8 -93.5796 1029.01 -92.5177C1001.89 -56.1565 984.255 -12.801 978.013 32.8614C968.264 104.21 986.197 174.148 1024.82 228.951C1026.51 231.434 1026.2 234.81 1024.03 236.805L1024.02 236.812L1024.02 236.819C1021.84 238.849 1018.71 238.517 1016.89 236.624L1016.88 236.619C998.159 217.231 977.176 200.245 954.521 186.13C954.514 186.125 954.501 186.116 954.477 186.099L954.468 186.092C954.443 186.074 954.403 186.045 954.354 186.011C954.288 185.96 954.235 185.923 954.201 185.901C954.179 185.886 954.16 185.873 954.148 185.865L954.141 185.861C954.1 185.833 954.065 185.811 954.042 185.796ZM954.124 185.85C954.12 185.847 954.121 185.848 954.126 185.851L954.124 185.85Z" fill="#3196A9" fill-opacity="0.03" stroke="#F9F9F9" stroke-width="5"/>
<path d="M941.697 139.222L941.689 139.218L941.681 139.214C893.249 114.952 840.211 103.258 788.842 103.247L788.842 103.247C773.568 103.247 758.259 104.255 743.335 106.25L743.331 106.25C740.541 106.628 737.771 104.54 737.379 101.273C736.993 97.9566 739.205 95.1724 742.018 94.7987L742.019 94.7986C757.372 92.7522 773.123 91.7114 788.831 91.7114C838.351 91.7114 887.21 102.071 932.572 122.329L936.737 124.189L936.064 119.678C930.933 85.2582 931.328 51.2246 936.689 18.313L936.689 18.3101C943.485 -23.7293 958.225 -63.2288 980.504 -99.09C982.154 -101.744 985.414 -102.4 987.816 -100.741C989.386 -99.649 990.284 -97.8152 990.284 -95.8687C990.284 -94.7451 989.99 -93.6375 989.382 -92.6631L989.379 -92.6582C967.941 -58.1522 953.753 -20.1464 947.217 20.3036C940.982 58.5465 942.051 96.8553 949.154 132.77L949.156 132.781C949.578 134.864 948.852 137.114 947.167 138.528C945.444 139.952 943.247 140.013 941.697 139.222Z" fill="#3196A9" fill-opacity="0.03" stroke="#F9F9F9" stroke-width="5"/>
<path d="M880.059 36.7926L880.06 36.7834C881.039 25.3638 882.584 13.8521 884.663 2.49297C889.022 -22.0882 895.893 -46.3859 905.077 -69.6994L905.077 -69.7002C905.365 -70.4294 905.499 -71.188 905.499 -71.9505C905.499 -74.3003 904.182 -76.4164 902.162 -77.298L902.161 -77.2984C899.54 -78.4432 896.41 -77.1929 895.239 -74.2055L895.238 -74.2018C885.755 -50.1236 878.665 -25.0387 874.177 0.298162L874.176 0.30536L874.174 0.312547C872.572 9.05832 871.267 17.9307 870.29 26.8018L869.994 29.4931L867.335 28.9837C842.611 24.2477 817.829 21.471 788.82 21.471C786.413 21.471 783.996 21.5004 781.37 21.5325C781.147 21.5352 780.924 21.5379 780.699 21.5406L780.668 21.541L780.649 21.5408C780.644 21.5408 780.636 21.5409 780.623 21.5411C780.589 21.5418 780.529 21.5436 780.446 21.5483C780.279 21.5577 780.025 21.5788 779.713 21.625C779.078 21.7194 778.271 21.9091 777.497 22.273C776.73 22.6331 776.054 23.1348 775.564 23.8347C775.088 24.5147 774.681 25.5321 774.674 27.1201L880.059 36.7926ZM880.059 36.7926C879.953 38.0944 879.292 39.5738 878.266 40.5526M880.059 36.7926L878.266 40.5526M878.266 40.5526C876.925 41.8211 875.116 42.2237 873.685 41.9326L878.266 40.5526ZM781.096 33.0765L781.096 33.0765C781.097 33.0765 781.098 33.0764 781.098 33.0764L781.097 33.0765C781.097 33.0765 781.096 33.0765 781.096 33.0765ZM781.096 33.0765C781.095 33.0765 781.092 33.0765 781.088 33.0765C781.082 33.0764 781.074 33.0764 781.063 33.0763C781.025 33.0758 780.959 33.0743 780.869 33.0699C780.687 33.0609 780.412 33.0402 780.077 32.9929C779.392 32.8965 778.523 32.6992 777.689 32.3139C776.863 31.9325 776.134 31.3971 775.609 30.6457C775.098 29.9151 774.668 28.8227 774.674 27.1207L781.096 33.0765Z" fill="#3196A9" fill-opacity="0.03" stroke="#F9F9F9" stroke-width="5"/>
</g>
</svg>
